<?xml version="1.0" standalone="no"?><!DOCTYPE svg PUBLIC "-//W3C//DTD SVG 1.1//EN" "http://www.w3.org/Graphics/SVG/1.1/DTD/svg11.dtd"><svg class="icon" width="200px" height="200.00px" viewBox="0 0 1024 1024" version="1.1" xmlns="http://www.w3.org/2000/svg"><path fill="#333333" d="M512.10217595 801.43108479m-28.95059473-28.95059473l-463.20951108-463.20951108q-28.95059475-28.95059475 0-57.90118951l0 0q28.95059475-28.95059475 57.9011885 0l463.20951108 463.20951206q28.95059475 28.95059475 0 57.90118852l0 0q-28.95059475 28.95059475-57.9011885 1e-8ZM454.50242768 743.78548334m28.95059474-28.95059376l463.20951109-463.20951109q28.95059475-28.95059475 57.90118852 1e-8l0 0q28.95059475 28.95059475-1e-8 57.90118852l-463.20951108 463.20951107q-28.95059475 28.95059475-57.90118852 0l0 0q-28.95059475-28.95059475 0-57.90118851Z" /></svg>