<?xml version="1.0" standalone="no"?><!DOCTYPE svg PUBLIC "-//W3C//DTD SVG 1.1//EN" "http://www.w3.org/Graphics/SVG/1.1/DTD/svg11.dtd"><svg class="icon" width="200px" height="200.00px" viewBox="0 0 1024 1024" version="1.1" xmlns="http://www.w3.org/2000/svg"><path fill="#333333" d="M846.272 0h-691.2a38.4 38.4 0 0 0-38.464 38.4v947.2a38.4 38.4 0 0 0 38.464 38.4h691.2a38.4 38.4 0 0 0 38.4-38.4V38.4a38.464 38.464 0 0 0-38.4-38.4z m-25.664 960h-640V64h640v896z"  /><path fill="#333333" d="M308.608 352h384a32 32 0 0 0 0-64h-384a32 32 0 0 0 0 64zM308.608 544h384a32 32 0 0 0 0-64h-384a32 32 0 0 0 0 64zM308.608 736h384a32 32 0 0 0 0-64h-384a32 32 0 0 0 0 64z"  /></svg>