<?xml version="1.0" standalone="no"?><!DOCTYPE svg PUBLIC "-//W3C//DTD SVG 1.1//EN" "http://www.w3.org/Graphics/SVG/1.1/DTD/svg11.dtd"><svg class="icon" width="200px" height="200.00px" viewBox="0 0 1024 1024" version="1.1" xmlns="http://www.w3.org/2000/svg"><path fill="#333333" d="M787.50464 598.016h47.616v51.2h-47.616z m-680.96-460.8h807.424a33.28 33.28 0 0 0 27.136-27.648 33.28 33.28 0 0 0-27.136-27.648H106.54464a33.792 33.792 0 0 0-27.648 27.648 33.28 33.28 0 0 0 27.648 27.648z m527.36 516.096a110.592 110.592 0 0 0 87.04-35.328 131.072 131.072 0 0 0 31.232-98.816 148.48 148.48 0 0 0-31.232-98.304 118.784 118.784 0 0 0-90.624-35.328 121.856 121.856 0 0 0-55.296 11.776 58.368 58.368 0 0 0-31.232 23.552 180.224 180.224 0 0 0-24.064 35.328 174.592 174.592 0 0 0-11.776 67.072 144.896 144.896 0 0 0 31.744 98.304 150.528 150.528 0 0 0 94.208 31.744z m-15.36-216.576c62.976 0 82.432 23.552 82.432 78.848s-19.456 82.432-82.432 82.432c-39.424 0-55.296-23.552-55.296-82.432a73.216 73.216 0 0 1 55.296-78.848zM323.12064 491.52l105.984 161.792h55.296V381.44H429.10464v161.28L323.12064 381.44H267.82464v271.872h55.296z m0 0M968.75264 192.512H55.34464C27.69664 192.512 0.04864 211.968 0.04864 235.52v559.616a45.056 45.056 0 0 0 47.104 47.104h929.792a45.056 45.056 0 0 0 47.104-47.104V235.52c0-23.552-27.648-43.008-55.296-43.008z m0 594.432H55.34464V247.296H972.84864v539.648z m0 0" /></svg>