<?xml version="1.0" standalone="no"?><!DOCTYPE svg PUBLIC "-//W3C//DTD SVG 1.1//EN" "http://www.w3.org/Graphics/SVG/1.1/DTD/svg11.dtd"><svg class="icon" width="200px" height="200.00px" viewBox="0 0 1024 1024" version="1.1" xmlns="http://www.w3.org/2000/svg"><path fill="#333333" d="M976 880c-11.2-201.6-35.2-403.2-60.8-603.2-9.6-80-40-104-120-105.6-40 0-57.6-11.2-60.8-56-3.2-72-43.2-110.4-116.8-112C556.8 0 494.4 0 432 1.6c-112 3.2-176 105.6-131.2 209.6 6.4 16 19.2 25.6 35.2 27.2 60.8 4.8 121.6 4.8 180.8 0 22.4-1.6 41.6-12.8 40-40-1.6-24-22.4-28.8-41.6-28.8-35.2 0-68.8 0-104-1.6-20.8 0-41.6-3.2-44.8-32-3.2-24 1.6-46.4 25.6-57.6 14.4-6.4 28.8-11.2 44.8-11.2 57.6-1.6 113.6 0 171.2 0 38.4 0 56 22.4 64 56 3.2 16 3.2 32 1.6 46.4-3.2 51.2 24 72 72 72 14.4 0 27.2 1.6 41.6 0 40-3.2 60.8 12.8 65.6 54.4 22.4 201.6 44.8 401.6 60.8 603.2 3.2 43.2-14.4 59.2-57.6 59.2-51.2-1.6-104 0-155.2 0H192c-70.4 0-80-12.8-72-84.8 3.2-25.6 4.8-51.2 8-76.8 12.8-161.6 25.6-323.2 38.4-486.4 3.2-43.2 14.4-73.6 65.6-72 22.4 0 41.6-12.8 38.4-40-3.2-22.4-22.4-27.2-43.2-30.4C158.4 160 112 192 100.8 260.8c-8 49.6-8 99.2-12.8 150.4C72 574.4 57.6 736 48 899.2c-4.8 97.6 24 124.8 120 124.8h668.8c120 0 144-24 139.2-144zM331.2 401.6c-35.2 0-32 33.6-33.6 59.2v16c1.6 99.2 41.6 176 131.2 217.6 73.6 33.6 150.4 25.6 216-22.4 80-57.6 94.4-144 86.4-236.8-1.6-19.2-9.6-38.4-33.6-40-27.2 0-35.2 19.2-36.8 41.6-3.2 30.4-1.6 62.4-6.4 92.8-9.6 56-43.2 92.8-99.2 108.8s-105.6 4.8-145.6-40c-36.8-40-48-86.4-48-139.2 1.6-24 8-59.2-30.4-57.6z" /></svg>