<?xml version="1.0" standalone="no"?><!DOCTYPE svg PUBLIC "-//W3C//DTD SVG 1.1//EN" "http://www.w3.org/Graphics/SVG/1.1/DTD/svg11.dtd"><svg class="icon" width="200px" height="171.67px" viewBox="0 0 1193 1024" version="1.1" xmlns="http://www.w3.org/2000/svg"><path fill="#333333" d="M1087.106667 85.333333a21.333333 21.333333 0 0 1 21.333333 21.333334v640a21.333333 21.333333 0 0 1-21.333333 21.333333H106.666667a21.333333 21.333333 0 0 1-21.333334-21.333333V106.666667a21.333333 21.333333 0 0 1 21.333334-21.333334h980.44m0-85.333333H106.666667A106.666667 106.666667 0 0 0 0 106.666667v640a106.666667 106.666667 0 0 0 106.666667 106.666666h980.44a106.666667 106.666667 0 0 0 106.666666-106.666666V106.666667a106.666667 106.666667 0 0 0-106.666666-106.666667zM810.666667 938.666667H384a42.666667 42.666667 0 1 0 0 85.333333h426.666667a42.666667 42.666667 0 0 0 0-85.333333zM1109.333333 597.333333H85.333333a42.666667 42.666667 0 0 0 0 85.333334h1024a42.666667 42.666667 0 1 0 0-85.333334zM554.666667 810.666667h-85.333334v170.666666h85.333334V810.666667zM725.333333 810.666667h-85.333333v170.666666h85.333333V810.666667z" /></svg>