<?xml version="1.0" standalone="no"?><!DOCTYPE svg PUBLIC "-//W3C//DTD SVG 1.1//EN" "http://www.w3.org/Graphics/SVG/1.1/DTD/svg11.dtd"><svg class="icon" width="200px" height="200.00px" viewBox="0 0 1024 1024" version="1.1" xmlns="http://www.w3.org/2000/svg"><path fill="#333333" d="M635.6 647.6L598.7 676s-36.9 18-81.3-23.2c-44.3-41.3-123-135.7-145.2-189.8-22.2-54.2 22.2-77.4 22.2-77.4s57.8-50.3 60.2-59.3c2.5-9 34.5-45.2-34.4-141.9-68.9-96.8-84.9-77.4-121.8-47.7-36.9 29.6-88.7 87.7-99.7 154.9-11.1 67.1-18.4 149.7 75.1 296.8 93.5 147.1 235 259.4 313.7 277.4 78.9 18 134.2 29.6 212.8-37.4 78.8-67.1 92.4-73.5 56.6-121.3C821.5 659.2 743 602 731.2 599.6c-11.7-2.5-28.6-6.6-55.1 14-26.5 20.5-40.5 34-40.5 34" /></svg>