<?xml version="1.0" standalone="no"?><!DOCTYPE svg PUBLIC "-//W3C//DTD SVG 1.1//EN" "http://www.w3.org/Graphics/SVG/1.1/DTD/svg11.dtd"><svg class="icon" width="200px" height="200.00px" viewBox="0 0 1024 1024" version="1.1" xmlns="http://www.w3.org/2000/svg"><path fill="#333333" d="M886.607777 274.095134v475.811609l80.212143 99.667855a105.299771 105.299771 0 0 1 11.434497 114.003642A111.614344 111.614344 0 0 1 878.07457 1023.993344H145.92543a111.273016 111.273016 0 0 1-101.374496-62.804402 104.787779 104.787779 0 0 1 17.066413-115.710283L136.538903 748.882758V275.119119l-75.09222-96.5959a104.787779 104.787779 0 0 1-17.066413-115.710284A111.273016 111.273016 0 0 1 145.92543 0.008533h732.14914a111.614344 111.614344 0 0 1 100.179847 60.415104 105.299771 105.299771 0 0 1-11.434497 114.003642zM204.804557 477.868112v68.265654h613.025573v-68.265654z m613.537566-68.265654v-68.265654H204.804557v68.265654zM204.804557 614.39942v68.265654h613.025573v-68.265654zM114.523229 889.510006a38.570095 38.570095 0 0 0-5.973244 43.007362A40.959392 40.959392 0 0 0 145.92543 955.72769h732.14914a40.959392 40.959392 0 0 0 37.034117-22.527666 38.058102 38.058102 0 0 0-4.266603-41.983377l-38.570095-48.809943A140.968576 140.968576 0 0 1 747.175178 921.594863c-81.577457 0-268.113356-55.636508-311.632711-55.636508a157.864325 157.864325 0 0 0-114.856963 46.079316C290.136624 936.613307 256.003797 887.462036 283.480723 861.862416a222.887361 222.887361 0 0 1 149.843111-58.708463c95.059923 0 238.929789 50.175256 314.022008 50.175256a77.140189 77.140189 0 0 0 69.801632-68.265654c0-34.132827-21.333017-34.132827-69.801632-34.132827H204.804557a48.468614 48.468614 0 0 1-12.117154 37.54611z m800.585458-798.708153A40.959392 40.959392 0 0 0 878.07457 68.274187H145.92543a40.959392 40.959392 0 0 0-37.54611 23.210323 38.570095 38.570095 0 0 0 5.973245 43.007362l77.652182 100.691839A49.321935 49.321935 0 0 1 204.804557 273.071149h614.390886a50.004592 50.004592 0 0 1 10.239848-36.180796l82.089449-104.105123a38.058102 38.058102 0 0 0 4.266604-41.983377z m0 0" /></svg>