<?xml version="1.0" standalone="no"?><!DOCTYPE svg PUBLIC "-//W3C//DTD SVG 1.1//EN" "http://www.w3.org/Graphics/SVG/1.1/DTD/svg11.dtd"><svg class="icon" width="200px" height="177.78px" viewBox="0 0 1152 1024" version="1.1" xmlns="http://www.w3.org/2000/svg"><path d="M698.752 468.096A291.2 291.2 0 1 0 448 611.2a35.2 35.2 0 0 0 0-70.4 220.8 220.8 0 1 1 190.208-108.544 35.2 35.2 0 0 0 60.544 35.84z" fill="#212121" /><path d="M867.2 960a419.2 419.2 0 0 0-838.4 0 35.2 35.2 0 0 0 70.4 0 348.8 348.8 0 1 1 697.6 0 35.2 35.2 0 0 0 70.4 0z" fill="#212121" /><path d="M776.96 700.16A419.2 419.2 0 0 0 28.8 960a35.2 35.2 0 0 0 70.4 0 348.8 348.8 0 0 1 622.592-216.128 35.2 35.2 0 0 0 55.232-43.648z" fill="#212121" /><path d="M792.96 969.984l352-437.952a32 32 0 0 0-49.92-40.064l-352 437.952a32 32 0 0 0 49.92 40.064z" fill="#34B07F" /><path d="M416 703.552V896a32 32 0 1 0 64 0v-192.448a32 32 0 0 0-64 0z" fill="#212121" /></svg>