<?xml version="1.0" standalone="no"?><!DOCTYPE svg PUBLIC "-//W3C//DTD SVG 1.1//EN" "http://www.w3.org/Graphics/SVG/1.1/DTD/svg11.dtd"><svg class="icon" width="200px" height="200.00px" viewBox="0 0 1024 1024" version="1.1" xmlns="http://www.w3.org/2000/svg"><path fill="#333333" d="M316.71771875 542.23507813a46.0215 46.0215 0 0 1-65.08785937-1e-8 46.0215 46.0215 0 0 1-1e-8-65.08785937l455.65439063-455.655375a46.0215 46.0215 0 0 1 65.08884375 0 46.0215 46.0215 0 0 1 0 65.08884375l-455.655375 455.65439063zM772.37309375 937.4271875a46.0215 46.0215 0 0 1-1e-8 65.08785937 46.0215 46.0215 0 0 1-65.08884374 0l-455.65439063-455.65439062a46.0215 46.0215 0 0 1 0-65.08884375 46.0215 46.0215 0 0 1 65.08785938 0L772.37309375 937.4271875z" /></svg>