<?xml version="1.0" standalone="no"?><!DOCTYPE svg PUBLIC "-//W3C//DTD SVG 1.1//EN" "http://www.w3.org/Graphics/SVG/1.1/DTD/svg11.dtd"><svg class="icon" width="200px" height="146.18px" viewBox="0 0 1401 1024" version="1.1" xmlns="http://www.w3.org/2000/svg"><path fill="#333333" d="M1244.968421 0H156.294737C70.063158 0 0 70.063158 0 156.294737v708.715789C0 953.936842 70.063158 1024 156.294737 1024h1088.673684c86.231579 0 156.294737-70.063158 156.294737-156.294737V156.294737C1401.263158 70.063158 1331.2 0 1244.968421 0zM1320.421053 865.010526c0 43.115789-35.031579 78.147368-78.147369 78.147369H158.989474C115.873684 943.157895 80.842105 908.126316 80.842105 865.010526V158.989474C80.842105 115.873684 115.873684 80.842105 158.989474 80.842105h1085.978947C1285.389474 80.842105 1320.421053 115.873684 1320.421053 158.989474v706.021052z"  /><path fill="#333333" d="M498.526316 652.126316h-323.368421c-21.557895 0-40.421053 16.168421-40.421053 37.726316S153.6 727.578947 175.157895 727.578947h323.368421c21.557895 0 40.421053-16.168421 40.421052-37.726315s-18.863158-37.726316-40.421052-37.726316zM619.789474 460.8H175.157895c-21.557895 0-40.421053 16.168421-40.421053 37.726316s18.863158 37.726316 40.421053 37.726316H619.789474c21.557895 0 40.421053-16.168421 40.421052-37.726316s-18.863158-37.726316-40.421052-37.726316zM1112.926316 528.168421c43.115789-35.031579 72.757895-88.926316 72.757895-148.210526 0-107.789474-91.621053-194.021053-202.105264-194.021053S781.473684 272.168421 781.473684 379.957895c0 59.284211 26.947368 110.484211 72.757895 148.210526-91.621053 45.810526-153.6 134.736842-153.6 239.831579 0 21.557895 18.863158 37.726316 40.421053 37.726316s40.421053-16.168421 40.421052-37.726316c0-107.789474 91.621053-194.021053 202.105263-194.021053s202.105263 86.231579 202.105264 194.021053c0 21.557895 18.863158 37.726316 40.421052 37.726316s40.421053-16.168421 40.421053-37.726316c0-102.4-61.978947-194.021053-153.6-239.831579z m-129.347369-29.642105c-67.368421 0-121.263158-51.2-121.263158-115.873684s53.894737-115.873684 121.263158-115.873685 121.263158 51.2 121.263158 115.873685-53.894737 115.873684-121.263158 115.873684zM660.210526 266.778947h-485.052631c-21.557895 0-40.421053 16.168421-40.421053 37.726316s18.863158 37.726316 40.421053 37.726316h485.052631c21.557895 0 40.421053-16.168421 40.421053-37.726316s-18.863158-37.726316-40.421053-37.726316z"  /></svg>