<?xml version="1.0" standalone="no"?><!DOCTYPE svg PUBLIC "-//W3C//DTD SVG 1.1//EN" "http://www.w3.org/Graphics/SVG/1.1/DTD/svg11.dtd"><svg class="icon" width="200px" height="200.00px" viewBox="0 0 1024 1024" version="1.1" xmlns="http://www.w3.org/2000/svg"><path fill="#333333" d="M459.776 34.133333a425.642667 425.642667 0 1 1 0 851.285334 425.642667 425.642667 0 0 1 0-851.285334z m0 68.266667a357.376 357.376 0 1 0 0 714.752 357.376 357.376 0 0 0 0-714.752zM459.776 778.0352a318.2592 318.2592 0 1 0 0-636.5184 318.2592 318.2592 0 0 0 0 636.5184z m0 68.266667a386.525867 386.525867 0 1 1 0-772.983467 386.525867 386.525867 0 0 1 0 772.983467zM974.097067 897.706667a53.930667 53.930667 0 0 1-76.322134 76.3904l-200.226133-200.226134 26.350933-24.098133c9.0112-8.192 17.6128-16.861867 25.873067-25.941333l24.098133-26.282667 200.226134 200.226133z" /></svg>