<?xml version="1.0" standalone="no"?><!DOCTYPE svg PUBLIC "-//W3C//DTD SVG 1.1//EN" "http://www.w3.org/Graphics/SVG/1.1/DTD/svg11.dtd"><svg class="icon" width="200px" height="177.78px" viewBox="0 0 1152 1024" version="1.1" xmlns="http://www.w3.org/2000/svg"><path fill="#333333" d="M478.016 0m92.16 0l0 0q92.16 0 92.16 92.16l0 368.64q0 92.16-92.16 92.16l0 0q-92.16 0-92.16-92.16l0-368.64q0-92.16 92.16-92.16Z"  /><path fill="#333333" d="M1067.557099 294.433613m28.479007 87.649368l0 0q28.479006 87.649369-59.170363 116.128375l-350.597474 113.916025q-87.649369 28.479006-116.128375-59.170362l0 0q-28.479006-87.649369 59.170363-116.128375l350.597474-113.916025q87.649369-28.479006 116.128375 59.170362Z"  /><path fill="#333333" d="M969.741873 946.14673m-74.559006 54.170289l0 0q-74.559006 54.170289-128.729295-20.388718l-216.681156-298.236025q-54.170289-74.559006 20.388717-128.729295l0 0q74.559006-54.170289 128.729295 20.388718l216.681156 298.236025q54.170289 74.559006-20.388717 128.729295Z"  /><path fill="#333333" d="M319.779917 1054.524926m-74.559006-54.170289l0 0q-74.559006-54.170289-20.388718-128.729295l216.681156-298.236025q54.170289-74.559006 128.729295-20.388717l0 0q74.559006 54.170289 20.388717 128.729295l-216.681155 298.236025q-54.170289 74.559006-128.729295 20.388717Z"  /><path fill="#333333" d="M15.772888 469.73235m28.479006-87.649369l0 0q28.479006-87.649369 116.128375-59.170362l350.597474 113.916025q87.649369 28.479006 59.170363 116.128375l0 0q-28.479006 87.649369-116.128375 59.170362l-350.597474-113.916025q-87.649369-28.479006-59.170363-116.128375Z"  /></svg>